<svg width="75" height="81" viewBox="0 0 75 81" fill="none" xmlns="http://www.w3.org/2000/svg">
<g id="logo">
<path id="Rectangle 4" d="M0 13C0 7.47715 4.47715 3 10 3H65C70.5229 3 75 7.47715 75 13V68C75 73.5229 70.5229 78 65 78H10C4.47715 78 0 73.5229 0 68V13Z" fill="white"/>
<path id="Vector 2" d="M15 72V36M15 36V17.1684C15 12.1663 21.5324 10.2639 24.2181 14.4838L37.9121 36M15 36H37.9121M37.9121 36V72M37.9121 36L50.7382 15.0953C53.3766 10.7951 60 12.665 60 17.7101V72" stroke="black" stroke-width="9"/>
<path id="Vector 5" d="M53.2857 81C51.5814 81 50.4861 79.3274 49.8227 77.3162C49.0786 75.06 51.0279 73 53.4037 73C56.1697 73 58.3692 75.8102 57.0064 78.2172C56.1301 79.7649 54.9369 81 53.2857 81Z" fill="white"/>
</g>
</svg>
